<svg class="svg-light"
    viewBox="0 0 64 64"
    xmlns="http://www.w3.org/2000/svg"
    >
    <path class="outline" d="m27.834179,50.706959c0,-8.253181 -0.215456,-9.442558 -1.818432,-10.038208c-5.812389,-2.159843 -9.832289,-9.434622 -9.832289,-17.793415c0,-10.406523 5.870615,-18.208569 14.425089,-19.170925c6.327625,-0.711844 10.831215,1.317004 14.714783,6.628941c4.212875,5.762374 5.212868,12.266492 2.951698,19.198461c-1.489788,4.567167 -7.022675,11.663015 -9.094074,11.663015c-0.516426,0 -0.915314,4.112766 -0.915314,9.437313l0,9.437313l-5.215733,0l-5.215729,0l0,-9.362495z"/>
    <rect class="base" x="30.489927" y="42.711409" width="5.369128" height="15.100671"/>
    <path class="bulb" d="m46.344307,22.751671a13.680093,16.181818 0 1 1 -27.360186,0a13.680093,16.181818 0 1 1 27.360186,0z"/>
    <path class="ray" d=""/>
</svg>
