<svg class="svg-light"
    viewBox="0 0 64 64"
    xmlns="http://www.w3.org/2000/svg"
    >
   <path class="outline" fill="#26de03" fill-opacity="0.82381" d="m44.23543,23.57476c0,7.54474 -5.53371,13.66095 -12.3599,13.66095c-6.82619,0 -12.3599,-6.11621 -12.3599,-13.66095c0,-7.54474 5.53371,-13.66095 12.3599,-13.66095c6.8253,0 12.35865,6.11469 12.3599,13.65845m-24.7198,-0.46216l24.7198,0l0,32.526l-24.7198,0l0,-32.526z" id="path3755"/>
   <path class="bulb" fill="#fcfcfb" fill-opacity="0.95767" d="m41.79859,20.71806c0,5.21964 -4.45157,9.45095 -9.94288,9.45095c-5.49129,0 -9.94287,-4.23132 -9.94287,-9.45095c0,-5.21964 4.45158,-9.45104 9.94287,-9.45104c5.49059,0 9.94188,4.23028 9.94288,9.44932m-14.70848,-3.95044l9.53121,0c2.90461,0 5.24299,2.33838 5.24299,5.243l0,3.29274c0,2.90462 -2.33838,5.243 -5.24299,5.243l-9.53121,0c-2.90461,0 -5.24299,-2.33838 -5.24299,-5.243l0,-3.29274c0,-2.90462 2.33838,-5.243 5.24299,-5.243z" id="path3771"/>
   <rect class="base" fill="#fcfcfb" fill-opacity="0.95767" ry="0.47619" y="46.22222" x="21.55807" height="0.95238" width="20.63492" id="rect3789"/>
   <path class="ray" d=""/>
</svg>
