<svg class="svg-light"
    viewBox="0 0 64 64"
    xmlns="http://www.w3.org/2000/svg"
    >
    <path class="outline"
        d="m38.135849,14.933379l-12.102505,0.003813l-0.210344,7.927808c-1.606001,2.67 -2.461,6.528999 -2.461,11.406c0,9.473 4.625143,8.99831 8.513142,8.99831c3.889004,0 8.763859,0.474689 8.763859,-8.99831c0,-4.881001 -0.854,-8.743999 -2.460999,-11.412001l-0.042152,-7.92562z"
        />
    <rect class="base" x="29.822001" y="16.142" width="4.355" height="4.273"/>
    <path class="bulb" d="m32.367825,40.002083c-1.402,-0.959003 -5.006824,1.536919 -5.006824,-5.731083c0,-5.775 1.271999,-8.566 2.207001,-9.855999l4.857998,0c0.945,1.292999 2.213001,4.080999 2.213001,9.855999c0,7.271 -3.120544,4.825924 -4.524544,5.784927"/>
    <path class="ray" style="" d="m49.70699,-1.65204l-15.31608,23.91607l-2.38979,-14.12877l-1.69664,13.91124l-17.37381,-22.90335l13.29531,26.62343l-13.67274,-6.37907l12.55409,9.7181l-29.87837,2.30349l29.962,2.71035l-12.63356,7.74672l13.75405,-4.45405l-11.97677,25.47076l16.6667,-22.59358l1.04216,12.77516l1.43275,-12.32783l17.6377,21.31995l-12.77049,-25.00892l13.14792,4.76455l-12.55708,-7.83968l29.88135,-4.18192l-30.2259,-1.12693l12.89447,-9.29902l-13.75403,6.03745l11.97676,-27.05415z" fill-opacity="0"/>
</svg>
